PathFileType	4	(X/Y/Z)	Walk1.trc
DataRate	CameraRate	NumFrames	NumMarkers	Units	OrigDataRate	OrigDataStartFrame	OrigNumFrames
200.000000	200.000000	5	61	mm	200.000000	603	925
Frame#	Times		RCAR		LTH3		RTH2		LBHD		RWRU		LWRU		LUA1		RTH3		LElbow		RFA1		LFA1		LCAR		LElbowM		C7		RTB3		RToe		RPSI		RTB2		RTB1		RMT5		LTH2		RElbow		RLFC		RBHD		RMT1		RTB4		RMMAL		LWRR		T10		RLMAL		LPSI		RBack		RCAL		LLFC		STRN		LASI		LTB3		RUA1		LACR1		RASI		RElbowM		LMMAL		RFHD		LTB1		LTB2		LMFC		LCAL		RTH1		LTB4		RMFC		LFHD		LLMAL		LMT5		RACR1		RTH4		LTH4		CLAV		RWRR		LToe		LMT1		LTH1
			X1	Y1	Z1	X2	Y2	Z2	X3	Y3	Z3	X4	Y4	Z4	X5	Y5	Z5	X6	Y6	Z6	X7	Y7	Z7	X8	Y8	Z8	X9	Y9	Z9	X10	Y10	Z10	X11	Y11	Z11	X12	Y12	Z12	X13	Y13	Z13	X14	Y14	Z14	X15	Y15	Z15	X16	Y16	Z16	X17	Y17	Z17	X18	Y18	Z18	X19	Y19	Z19	X20	Y20	Z20	X21	Y21	Z21	X22	Y22	Z22	X23	Y23	Z23	X24	Y24	Z24	X25	Y25	Z25	X26	Y26	Z26	X27	Y27	Z27	X28	Y28	Z28	X29	Y29	Z29	X30	Y30	Z30	X31	Y31	Z31	X32	Y32	Z32	X33	Y33	Z33	X34	Y34	Z34	X35	Y35	Z35	X36	Y36	Z36	X37	Y37	Z37	X38	Y38	Z38	X39	Y39	Z39	X40	Y40	Z40	X41	Y41	Z41	X42	Y42	Z42	X43	Y43	Z43	X44	Y44	Z44	X45	Y45	Z45	X46	Y46	Z46	X47	Y47	Z47	X48	Y48	Z48	X49	Y49	Z49	X50	Y50	Z50	X51	Y51	Z51	X52	Y52	Z52	X53	Y53	Z53	X54	Y54	Z54	X55	Y55	Z55	X56	Y56	Z56	X57	Y57	Z57	X58	Y58	Z58	X59	Y59	Z59	X60	Y60	Z60	X61	Y61	Z61

603	3.015	-405.4	875.37	272.32	-534.68	603.01	-193.18	-621.94	674.26	124.88	-648.11	1621.9	-111.47	-474.01	877.46	276.97	-729.42	837.12	-273.78	-689.65	1273.5	-290.63	-718.03	601.94	139.52	-742.17	1123.4	-301.61	-547.93	992.13	293.02	-743.37	970.98	-297.07	-665.18	787.58	-278.17	-774.1	1125.2	-230.22	-676.02	1496	-36.521	-835.39	183.65	35.897	-731.89	22.437	57.036	-788.35	1010	19.695	-820.69	268.23	108.46	-755.19	351.72	54.661	-838.27	20.645	109.07	-500.28	713.7	-176.35	-619.72	1130.3	282.57	-763.35	488.61	128.59	-638.97	1630.4	29.706	-785.72	31.831	32.596	-794.33	267.01	43.639	-882.98	97.194	-6.5655	-658.82	845.36	-231.61	-787.64	1275.9	-28.054	-921.39	81.122	72.869	-790.69	1002.5	-57.629	-749.05	1412.1	103.6	-982.57	55.412	23.359	-508.57	509.94	-176.07	-507.73	1229.1	-37.344	-576.68	1013.8	-160.68	-378.29	215.29	-106.88	-605.23	1283.3	229.76	-613.26	1443.8	-206.05	-613.18	1026.8	131.49	-656.94	1105	213.34	-361.75	106.09	-68.845	-463.97	1664.1	-5.4756	-419.07	397.12	-104.17	-425.98	305.07	-174.86	-504.26	515.32	-42.245	-423.91	19.032	-103.35	-662.59	782.96	162.75	-399.28	309.37	-104.19	-749.82	504.38	-2.6274	-467.98	1660.8	-81.426	-382.74	76.656	-149.08	-268.29	53.394	-172.99	-594.67	1447.8	120.66	-687.86	690.67	154.2	-560.81	690.63	-209.11	-548.11	1403.8	-38.394	-431.09	907.98	218.74	-190.79	98.581	-111.2	-234.17	80.828	-93.942	-585.29	780.59	-217.76
604	3.02	-399.45	875.32	271.79	-528.78	602.7	-192.6	-616.98	673.68	124.98	-642.61	1621.3	-112.14	-468.09	877.2	276.28	-724.21	836.27	-274.36	-683.72	1272.6	-291.17	-713.33	601.65	139.35	-736.09	1122.5	-302.13	-542.29	991.67	292.34	-737.66	970.17	-297.62	-660.14	786.51	-278.35	-768.33	1124.4	-230.91	-670.57	1495.5	-37.174	-833.85	184.13	35.932	-731.87	22.382	57.053	-782.57	1009.5	19.055	-818.38	268.58	108.47	-752.01	351.38	54.639	-838.19	20.728	108.99	-494.42	713.53	-176.72	-614.35	1129.8	281.91	-759.18	488.48	128.5	-633.47	1629.9	29.024	-785.59	31.833	32.634	-791.97	267.03	43.664	-882.23	98.14	-6.468	-653.86	844.25	-231.71	-782.05	1275.3	-28.629	-920.8	82.361	72.975	-784.91	1001.9	-58.222	-743.63	1411.6	102.92	-982.19	57.318	23.464	-502.85	509.3	-175.58	-502.1	1228.6	-37.771	-570.8	1013.2	-160.98	-373.93	214.23	-105.85	-599.86	1282.7	229.15	-607.74	1443.2	-206.64	-610.57	1026.8	130.91	-651.43	1104.4	212.61	-358.1	104.97	-67.614	-458.45	1663.5	-6.1544	-413.71	396.23	-103.47	-421.34	304.08	-173.83	-498.06	515.14	-41.878	-421.29	19.017	-102.19	-657.47	782.52	162.45	-394.38	308.39	-103.32	-745.01	504.01	-2.6872	-462.46	1660.2	-82.105	-379.37	75.748	-147.85	-265.41	51.335	-171.67	-589.25	1447.3	120.09	-682.97	690.31	153.95	-555.04	690.19	-209.1	-542.59	1403.2	-38.955	-425.14	907.9	218.22	-187.1	95.515	-109.98	-230.83	78.409	-92.72	-579.64	780.08	-218.17
605	3.025	-393.62	875.24	271.27	-522.7	602.51	-192.02	-611.89	673.12	125.06	-637.1	1620.8	-112.85	-462.29	876.93	275.58	-718.88	835.44	-274.99	-677.75	1271.8	-291.73	-708.46	601.35	139.17	-729.94	1121.7	-302.69	-536.74	991.23	291.64	-731.86	969.37	-298.22	-654.98	785.46	-278.55	-762.5	1123.6	-231.63	-665.1	1494.9	-37.854	-832.23	184.66	35.973	-731.86	22.323	57.064	-776.75	1008.9	18.424	-815.93	268.96	108.51	-748.67	351.03	54.621	-838.09	20.828	108.92	-488.4	713.49	-177.09	-609.03	1129.2	281.21	-754.81	488.33	128.42	-627.96	1629.5	28.311	-785.45	31.831	32.666	-789.49	267.06	43.692	-881.43	99.154	-6.3411	-648.81	843.17	-231.82	-776.44	1274.7	-29.213	-920.14	83.687	73.102	-779.11	1001.3	-58.812	-738.2	1411	102.21	-981.76	59.36	23.607	-497.01	508.75	-175.13	-496.44	1228.2	-38.236	-564.89	1012.7	-161.3	-369.8	213.11	-104.86	-594.51	1282.3	228.52	-602.22	1442.5	-207.26	-607.78	1026.8	130.26	-645.94	1103.9	211.83	-354.83	103.77	-66.452	-452.94	1663	-6.8631	-408.38	395.31	-102.78	-416.77	303.1	-172.85	-491.71	514.99	-41.584	-419.19	19.099	-101.17	-652.25	782.1	162.13	-389.61	307.38	-102.48	-740.02	503.63	-2.7372	-456.94	1659.6	-82.814	-376.37	74.825	-146.7	-262.98	49.052	-170.42	-583.82	1446.8	119.51	-677.95	689.96	153.68	-549.13	689.86	-209.05	-537.06	1402.8	-39.545	-419.27	907.81	217.68	-183.77	92.009	-108.72	-227.92	75.652	-91.497	-573.87	779.67	-218.56
606	3.03	-387.91	875.13	270.75	-516.46	602.44	-191.44	-606.65	672.58	125.12	-631.59	1620.4	-113.59	-456.62	876.67	274.86	-713.43	834.64	-275.69	-671.75	1271	-292.32	-703.42	601.04	139	-723.73	1120.9	-303.28	-531.28	990.8	290.91	-725.96	968.6	-298.85	-649.69	784.45	-278.77	-756.62	1122.8	-232.4	-659.62	1494.4	-38.56	-830.51	185.25	36.023	-731.84	22.258	57.07	-770.9	1008.4	17.808	-813.35	269.36	108.56	-745.18	350.67	54.61	-837.98	20.945	108.85	-482.23	713.56	-177.47	-603.77	1128.7	280.48	-750.24	488.17	128.35	-622.46	1629.1	27.566	-785.31	31.825	32.693	-786.89	267.12	43.726	-880.56	100.24	-6.1806	-643.65	842.13	-231.95	-770.81	1274.1	-29.802	-919.42	85.107	73.255	-773.28	1000.8	-59.393	-732.77	1410.6	101.48	-981.26	61.548	23.786	-491.03	508.28	-174.74	-490.75	1227.8	-38.738	-558.96	1012.2	-161.64	-365.87	211.97	-103.92	-589.18	1281.8	227.86	-596.7	1441.9	-207.9	-604.78	1026.8	129.56	-640.49	1103.3	211	-351.9	102.52	-65.377	-447.42	1662.6	-7.6001	-403.08	394.41	-102.09	-412.24	302.17	-171.93	-485.24	514.87	-41.371	-417.52	19.28	-100.31	-646.93	781.68	161.79	-384.95	306.36	-101.68	-734.84	503.23	-2.7752	-451.42	1659.2	-83.553	-373.69	73.913	-145.67	-260.94	46.597	-169.25	-578.37	1446.4	118.9	-672.79	689.6	153.41	-543.09	689.64	-208.96	-531.52	1402.3	-40.162	-413.5	907.71	217.15	-180.76	88.131	-107.43	-225.35	72.623	-90.285	-568	779.36	-218.89
607	3.035	-382.31	875	270.24	-510.11	602.46	-190.88	-601.27	672.08	125.15	-626.09	1620	-114.36	-451.07	876.41	274.13	-707.85	833.87	-276.44	-665.71	1270.2	-292.92	-698.19	600.71	138.83	-717.46	1120.1	-303.91	-525.92	990.4	290.16	-719.96	967.85	-299.53	-644.28	783.48	-279.02	-750.69	1122.1	-233.2	-654.12	1493.9	-39.291	-828.69	185.89	36.084	-731.84	22.186	57.068	-765.03	1007.9	17.211	-810.6	269.78	108.62	-741.53	350.31	54.611	-837.84	21.084	108.78	-475.93	713.73	-177.84	-598.56	1128.3	279.7	-745.46	487.99	128.3	-616.95	1628.7	26.79	-785.16	31.814	32.718	-784.16	267.2	43.769	-879.61	101.4	-5.9823	-638.4	841.13	-232.11	-765.17	1273.6	-30.396	-918.62	86.628	73.435	-767.43	1000.3	-59.961	-727.31	1410.1	100.72	-980.68	63.892	23.998	-484.94	507.92	-174.42	-485.04	1227.4	-39.275	-553.01	1011.7	-162	-362.1	210.82	-103.06	-583.88	1281.4	227.18	-591.16	1441.3	-208.56	-601.52	1026.9	128.79	-635.08	1102.9	210.1	-349.25	101.26	-64.4	-441.91	1662.2	-8.3642	-397.8	393.52	-101.42	-407.7	301.31	-171.09	-478.67	514.78	-41.246	-416.2	19.561	-99.597	-641.51	781.28	161.43	-380.38	305.34	-100.91	-729.47	502.81	-2.7985	-445.9	1658.7	-84.321	-371.26	73.035	-144.76	-259.21	44.028	-168.18	-572.9	1446.1	118.28	-667.47	689.25	153.13	-536.93	689.52	-208.81	-525.95	1401.9	-40.804	-407.83	907.61	216.62	-178.02	83.968	-106.12	-223.09	69.399	-89.099	-562.03	779.14	-219.17
